<svg xmlns="http://www.w3.org/2000/svg" width="250" height="250"><path d="m124.563-.375 2.427.002C138.788-.336 149.733.217 161 4l2.023.65C182.228 10.882 198.339 21.15 213 35l2.273 2.078c19.956 18.905 34.116 48.48 35.015 76.02.083 3.822.097 7.642.087 11.465l-.002 2.427c-.037 11.798-.59 22.743-4.373 34.01l-.65 2.023c-6.233 19.205-16.5 35.316-30.35 49.977l-2.078 2.273c-18.905 19.956-48.48 34.116-76.02 35.015a471 471 0 0 1-11.464.087l-2.428-.002c-11.798-.037-22.743-.59-34.01-4.373l-2.023-.65C67.772 239.118 51.661 228.85 37 215l-2.273-2.078C14.77 194.017.61 164.442-.288 136.902a471 471 0 0 1-.087-11.464l.002-2.428C-.336 111.212.217 100.267 4 89l.65-2.023C10.882 67.772 21.15 51.661 35 37l2.078-2.273C59.731 10.816 92.248-.457 124.563-.375" fill="#100D29"/><path d="m118 57 2.773 1.355c5.503 2.812 10.351 6.079 15.145 9.965 2.933 2.367 5.998 4.515 9.082 6.68l.79-1.79C150.037 65.455 159.153 61.226 167 58c8.895-2.174 15.783-.824 24 3 6.415 4.115 10.606 10.817 13 18 .972 10.613.353 18.978-6 28a27.04 27.04 0 0 1-17 9c-12.824.48-24.267-4.389-34-12.5-2.236-2.795-3.07-5.063-4-8.5-2.82-8.21-9.978-13.14-16.625-18.312l-1.63-1.275c-2.622-1.993-5.109-3.586-8.089-5.007L114 69c-.875-3.187-.875-3.187-1-6-11.584-2.94-26.975-4.865-38.004.738L73 65l-2.152 1.355C62.21 72.355 56.792 79.78 54 90c-1.02 9.892-.193 17.966 6 26 7.852 8.417 19.356 11.724 30.613 12.371 12.917.34 22.07-1.388 32.2-9.996C128.494 112.89 133.478 106.565 136 99c2.896.999 3.973 1.96 5.75 4.5 2.303 6.45 2.388 11.2-.414 17.54-6.054 12.502-13.71 24.115-27.336 28.96l-2.172.774c-6.175 2.045-11.778 2.74-18.266 2.663l-2.79-.027c-12.901-.328-22.864-5.176-31.842-14.578-8.757-10.71-13.711-23.65-13.274-37.562C47.411 84.576 53.92 71.857 67 61c14.47-9.496 35.242-12.512 51-4" fill="#5039EB"/><path d="m93.5 59.625 2.684-.035c5.786.025 11.7.464 16.816 3.41 1.31 1.983 1.31 1.983 2 4l-1 2 2.438.563C126.597 73.662 135.32 83.32 143 91c.492 1.988.492 1.988.875 4.313.827 4.134 2.144 6.606 5.125 9.687l-5 10h-1l-.262-2.23c-.904-6.28-1.619-9.863-6.738-13.77l-.285 2.172c-2.557 10.116-12.84 19.112-21.352 24.496-12.278 6.114-27.372 4.504-40.117.594-9.08-3.53-14.919-9.27-20.246-17.262-2.51-9.502-1.86-19.313 2.316-28.176 5.707-9.573 13.548-16.79 24.147-20.202 4.342-1.064 8.588-1.055 13.037-.997" fill="#100C29"/><path d="m93.5 59.625 2.684-.035c5.786.025 11.7.464 16.816 3.41 1.31 1.983 1.31 1.983 2 4l-1 2 2.438.563C126.597 73.662 135.32 83.32 143 91c.492 1.988.492 1.988.875 4.313.827 4.134 2.144 6.606 5.125 9.687l-5 10h-1l-.297-2.195c-.914-5.914-1.945-9.99-5.703-14.805l-.848-1.922C130.826 86.472 115.718 79.433 106 75a94 94 0 0 0-4-1v3l9 4c-3 1-3 1-6 0-12.963-.959-12.963-.959-25 3-2.291 2.152-4.201 4.426-6 7l-2-2c-2.725 2.725-2.709 5.323-3 9-.066.793-.131 1.586-.2 2.402-.338 7.587 1.898 12.063 5.95 18.286 6.116 6.285 12.251 8.438 20.875 8.687 8.526-.08 14.508-2.574 20.875-8.187 5.862-6.283 10.663-14.513 14.5-22.188l5 1c-1.07 10.015-8.888 17.778-16.332 24.05-10.87 7.942-22.876 8.528-35.842 6.632C71.958 126.49 63.163 121.7 56 112c-4.267-6.4-3.667-14.57-3-22 2.645-10.668 9.791-20.06 19.101-25.95 6.86-3.792 13.68-4.526 21.399-4.425" fill="#0B0C83"/><path d="M194.313 63.125c6.693 7.16 9.866 14.134 9.875 23.875l.037 2.195c.01 3.812-.06 5.559-2.225 8.805l-.687-3.625C200.197 90.081 198.558 86.752 195 84c-3.252-1.604-6.56-2.864-10-4l1 2c.42 3.059.49 5.948 0 9-2.437 3-2.437 3-5 5l-1 1c-8.106 1.03-14.28-.39-21-5-2.979-2.41-5.875-4.79-8-8 .138-3.561 1.962-5.341 4.438-7.75l1.87-1.86C159 73 159 73 161 73l-1-5c-4.787 2.735-8.91 5.366-12 10l-4-2c4.498-9.277 13.828-14.23 23-18 10.098-2.468 18.611-.457 27.313 5.125" fill="#C50CE5"/><path d="M136 99c2.896.999 3.973 1.96 5.75 4.5 2.303 6.45 2.388 11.2-.414 17.54-6.054 12.502-13.71 24.115-27.336 28.96l-2.172.774c-6.176 2.045-11.777 2.738-18.266 2.663l-2.781-.02C83.886 153.254 78.137 152.299 72 149l-2.242-.922C67.452 146.912 66.34 146.225 65 144c-.276-4.444.238-8.624 1-13 3.909 1.874 7.509 4.155 11.172 6.465 6.578 3.57 12.276 5.074 19.766 4.972l2.402-.025c10.511-.304 16.756-4.76 24.66-11.412-2.999 0-7.01 3.023-9.72 4.424-5.174 2.632-8.767 3.714-14.53 3.638l-2.703-.027L95 139c1.952-1.952 3.532-2.848 6-4l-2-5 3.184-1.066c14.955-5.187 25.131-12.85 32.816-26.934z" fill="#C633E7"/><path d="M122 61c8.847.961 15.986 8.66 22.188 14.496 1.676 1.717 1.676 1.717 3.812 1.504q2.007-2.494 4-5c4.432-4 4.432-4 8-4l1 5-1.715 1.39-2.222 1.86-2.215 1.828c-1.987 2.067-2.746 3.06-2.848 5.922 3.658 5.903 10.539 9.915 17 12 4.886.557 9.319.56 14-1 2.21-3.191 2.216-5.945 2.125-9.75l-.055-2.984L185 80c6.276.598 10.16 2.91 14.313 7.625 2.876 4.049 3.453 7.472 2.687 12.375-2.22 5.103-5.356 8.904-10 12l-1.875 1.313c-4.384 1.418-8.348-.01-12.5-1.626C175 110 175 110 174.125 107.814L174 106l-3.156-.766c-9.87-2.844-17.895-11.974-25.172-18.912-4.766-4.535-9.693-8.814-14.812-12.947-1.322-1.084-2.596-2.224-3.86-3.375v-2l-2.437-.75C122 66 122 66 121.125 63.938L121 62z" fill="#F830E6"/><path d="m93.5 59.625 2.684-.035c5.786.025 11.7.464 16.816 3.41 1.248 2.108 1.248 2.108 2 4-3.474 1.158-4.023.806-7.312-.437C96.845 63.159 85.295 64.248 75 69a110 110 0 0 0-4 4h-2c-1.69 3.268-3.142 6.607-4.562 10l-1.317 3.125C60.387 93.138 60.048 100.68 62 108l2-2 .77 1.645 1.043 2.168 1.019 2.144c2.279 3.985 5.274 5.757 9.168 8.043a807 807 0 0 1 6.816 4.695C88.797 128.27 96.281 127.632 103 127c13.757-4.14 20.228-16.34 27-28l1-2 5 1c-1.07 10.015-8.888 17.778-16.332 24.05-10.87 7.942-22.876 8.528-35.842 6.632C71.958 126.49 63.163 121.7 56 112c-4.267-6.4-3.667-14.57-3-22 2.645-10.668 9.791-20.06 19.101-25.95 6.86-3.792 13.68-4.526 21.399-4.425" fill="#0A0DAA"/><path d="M113 63c13.318 5.88 23.068 13.415 33.563 23.379q1.78 1.686 3.562 3.371l1.746 1.65c5.81 5.396 12.29 10.894 19.844 13.557 2.822 1.288 2.94 2.353 4.285 5.043 2.388 1.341 2.388 1.341 5.125 2.25l2.758 1.016L186 114v1c-10.938 2.652-21.98-.386-31.562-5.937-5.905-3.869-9.553-7.104-11.438-14.063-2.82-8.21-9.978-13.14-16.625-18.312l-1.63-1.275c-2.638-2.006-5.02-3.53-8.08-4.831C114 69 114 69 113.124 65.812z" fill="#7D06CB"/><path d="m55 110 1.5 2.063c9.006 10.581 19.693 15.082 33.398 16.277 3.699.266 7.399.475 11.102.66v3c.306 1.34.635 2.675 1 4l-5 2c10.326.78 18.604-3.34 27-9l2-1c-2.647 6.319-9.11 10.201-14.937 13.438-9.51 3.807-21.212 2.793-30.563-.875C69.347 135.077 59.752 125.616 55 114z" fill="#510AE7"/><path d="M66 131c3.909 1.874 7.509 4.155 11.172 6.465 6.704 3.639 12.27 4.992 19.89 4.785l2.315-.016c4.625-.063 9.06-.483 13.623-1.234l-1 9c-6.282 2.757-11.48 3.515-18.312 3.438l-2.81-.021C83.945 153.254 78.172 152.318 72 149l-2.242-.922C67.452 146.912 66.34 146.225 65 144c-.276-4.444.238-8.624 1-13" fill="#F831E7"/><path d="m95.188 52.625 3.118.003c7.226.113 13.244.924 19.694 4.372l1.977.934c1.36.649 2.697 1.35 4.023 2.066l-2 2v3a159 159 0 0 0 5 3v2c-3.016-1.13-5.846-2.433-8.687-3.937-8.065-4.036-15.83-5.604-24.813-5.5l-2.792.022c-6.569.16-12.054.84-17.708 4.415l-2.152 1.355C64.188 70.981 59.27 76.55 56 84l-1-3 2-4 .063-3.187c1.678-6.825 7.018-10.92 12.769-14.649 8.604-4.826 15.536-6.554 25.356-6.539" fill="#8830E2"/><path d="M180 75c3.564 2.364 5.559 5.123 6.54 9.293.28 4.42-.119 6.189-2.977 9.707L181 96l-1 1c-7.854.998-14.57-.219-21-5-1.277-2.172-1.277-2.172-2-4 5.246-8.009 12.468-16.006 23-13" fill="#160D2D"/><path d="M190 81c5.678 2.377 9.22 5.44 12 11 .618 5.972-.143 9.304-3.57 14.242-1.909 2.347-3.916 4.082-6.43 5.758l-1.875 1.313c-4.384 1.418-8.348-.01-12.5-1.626C175 110 175 110 174.125 107.814L174 106l-7-2c2.85-.95 4.86-.973 7.938-.875 3.819.05 6.007-.7 9.062-3.125l2-3h2c1.752-3.772 2.225-6.667 2.125-10.812l-.055-2.958z" fill="#F402DE"/><path d="M194.313 63.125c6.693 7.16 9.866 14.134 9.875 23.875l.037 2.195c.01 3.812-.06 5.559-2.225 8.805l-.687-3.625c-1.464-5.782-4.19-9.048-9.313-12.25-2.878-1.317-2.878-1.317-5.625-.937L184 81c-2.312-3-2.312-3-4-6 8.958.037 13.766 2.766 20 9-3.04-5.628-6.37-9.523-11.426-13.457L187 69v-3l-3-1-1-3c-5.101-2.55-12.47-1.723-17.8-.2-7.636 3.456-12.62 9.331-17.2 16.2l-4-2c4.498-9.277 13.828-14.23 23-18 10.098-2.468 18.611-.457 27.313 5.125" fill="#3211E1"/><path d="M136 99c2.896.999 3.973 1.96 5.75 4.5 1.99 5.572 2.74 9.983.354 15.616-2.468 5.093-5.248 10-8.104 14.884h-1c-.157-7.716.325-15.315 1-23l-.96 1.652C126.4 123.382 116.81 131.423 105 136c-2.258-.008-2.258-.008-4-1-1.25-2.562-1.25-2.562-2-5l3.184-1.066c14.955-5.187 25.131-12.85 32.816-26.934z" fill="#AC35E7"/><path d="M114 69c11.262 2.599 21.026 14.026 29 22 .492 1.988.492 1.988.875 4.313.827 4.134 2.144 6.606 5.125 9.687l-5 10h-1l-.297-2.195c-.914-5.914-1.945-9.99-5.703-14.805l-.816-1.914c-2.035-3.585-5.508-5.57-8.774-7.988-2.52-2.194-3.74-4.236-5.41-7.098-2.006-1.877-4.107-3.548-6.258-5.254-1.925-1.929-2.458-3.059-2.742-5.746z" fill="#6108AF"/><path d="M148 89c3.334 1.771 6.031 3.857 8.813 6.375 4.56 4.07 9.297 7.557 15.062 9.688 2.125.937 2.125.937 2.938 2.855 1.62 2.842 3.276 3.242 6.312 4.332l2.758 1.016L186 114v1c-6.696 1.623-12.534 1.133-19.125-.75l-3.57-.984c-3.467-1.328-5.69-2.637-8.305-5.266-.566-2.07-.566-2.07-.562-4.125L154 100c-1.933-1.092-1.933-1.092-4-2-1.09-3.052-2-5.742-2-9" fill="#A805C6"/><path d="m176.938 67.5 2.132.017c7.148.246 10.7 2.355 15.664 7.163 3.256 3.488 5.117 6.609 6.266 11.32l-2.125-2.25c-6.797-6.502-12.214-7.87-21.437-8l-3.317-.078c-3.478.366-5.226 1.448-8.121 3.328h-3l-1-8c5.051-2.47 9.268-3.554 14.938-3.5" fill="#F832E8"/><path d="M125 128c0 3 0 3-1.469 4.684-6.288 5.43-13.136 10.475-21.761 10.414l-2.432-.01-2.525-.025-2.561-.014q-3.126-.02-6.252-.049l4-2-4-11 13-1v3c.306 1.34.635 2.675 1 4l-5 2c10.135.765 18.862-3.147 27-9z" fill="#6808E7"/><path d="m199 104 2 4c-4.26 7.1-9.697 10.348-17 14-8.317.976-14.658-1.33-22-5v-2h2v-2l1.941.438c10.366 2.224 18.13 1.965 27.434-3.376 2.385-1.874 3.994-3.524 5.625-6.062" fill="#1A0C51"/><path d="m96.25 72.938 3.266.027L102 73v4l9 4c-3 1-3 1-6 0-12.963-.959-12.963-.959-25 3-2.291 2.152-4.201 4.426-6 7l-2-2-2 1c2.861-8.346 8.366-12.134 16-16 3.412-1.186 6.658-1.102 10.25-1.062" fill="#110C33"/><path d="M66 131c3.126 1.509 6.09 3.207 9.063 5l2.597 1.563A171 171 0 0 1 83 141h-3l1 11c-13.442-3.93-13.442-3.93-16-8-.286-4.444.238-8.624 1-13" fill="#AA35E8"/><path d="M94 64c7.092-.546 13.668.621 20 4 1.313 3.375 1.313 3.375 2 7 1.662 1.736 3.41 3.12 5.344 4.543 1.872 1.647 2.682 3.182 3.656 5.457-2.511-1.218-4.947-2.523-7.39-3.875l-1.903-1.047a429 429 0 0 1-3.867-2.156c-3.373-1.84-6.4-3.148-10.168-3.953C98 73 98 73 96.344 71.344 94 66.222 94 66.222 94 64" fill="#270B90"/><path d="m131 97 5 1c-1.073 10.035-8.89 17.692-16.273 24.047-4.663 3.34-11.142 7.537-17.079 6.57L101 128l2.379-1.066C117.117 120.478 124.299 110.4 131 97" fill="#0B0FE4"/><path d="M55 116c3.635 1.212 3.77 1.947 5.438 5.25 1.514 2.95 2.565 4.753 5 7.063 2.699 4.642.748 9.662-.438 14.687-5.27-2.313-8.63-5.747-11-11-.58-5.346.228-10.71 1-16" fill="#7937E4"/><path d="m93.5 59.625 2.684-.035c5.786.025 11.7.464 16.816 3.41 1.248 2.108 1.248 2.108 2 4-3.474 1.158-4.023.806-7.312-.437-10.42-3.272-20.021-2.006-30.141 1.66C75 69 75 69 73 68l1-5c6.61-2.657 12.405-3.468 19.5-3.375" fill="#0C0FB5"/><path d="m95.688 52.75 3.166-.023 3.033.007 2.756.007C107 53 107 53 110 55l-21-1v2l2.117-.07 2.758-.055 2.742-.07C99 56 99 56 101 58l-3.953.262c-13.034.994-23.52 3.197-34.426 10.82C61 70 61 70 58 70c10.783-11.98 21.642-17.37 37.688-17.25" fill="#0F11E0"/><path d="M57 71h1c.186 4.088-.144 6.417-2 10-2.241 7.134-2.564 14.583-3 22h-1l-1-11-3 24h-1c-3.045-13.701-.754-28.602 6.688-40.5 1.824-2.656 1.824-2.656 3.312-4.5" fill="#3737E1"/><path d="m55 110 1.5 2.063C62.451 119.055 68.258 123.116 77 126l-2 2 3 9c-7.638-1.057-12.18-6.774-16.812-12.562C57.679 119.728 55 116.02 55 110" fill="#3D0AE8"/><path d="M190 81c5.678 2.377 9.22 5.44 12 11 .38 5.69.01 8.984-3 14l-3-1c-.95-2.363-.95-2.363-1.687-5.312l-.762-2.926C193 94 193 94 193 90h-2z" fill="#F700DE"/><path d="M114 69c6.982 1.611 13.011 5.985 16.938 11.938 1.27 3.66 2.214 7.28 3.062 11.062-4.252-1.89-7.977-4.198-10.312-8.312-2.13-3.393-4.827-5.468-7.946-7.942-1.925-1.929-2.458-3.059-2.742-5.746z" fill="#420AA4"/><path d="m80 72-.5 1.813c-.611 2.3-.611 2.3-.5 5.187l-2.25 1.688C68.803 87.37 68.888 97.375 68 107c-3.208-3.208-3.082-6.883-3.25-11.25.098-7.39 2.58-14.012 7.25-19.75 5.263-4 5.263-4 8-4" fill="#0C0C69"/><path d="M148 89c5.185 2.592 9.596 6.574 11.824 12.012.47 1.642.834 3.314 1.176 4.988l2.375.25c2.625.75 2.625.75 3.938 2.813L168 111c-3 2-3 2-5.375 1.875-3.384-1.128-5.192-2.239-7.625-4.875-.395-1.973-.395-1.973-.562-4.125L154 100c-1.933-1.092-1.933-1.092-4-2-1.09-3.052-2-5.742-2-9" fill="#9505D0"/><path d="M122 61c7.978.831 14.78 7.258 20 13l-2 6c-4.863-2.583-9.168-6.054-13-10v-2l-2.437-.75C122 66 122 66 121.125 63.938L121 62z" fill="#D02EE5"/><path d="M171 176c1.938 1.125 1.938 1.125 3 3 .42 3.292.295 5.34-1.062 8.375C171 189 171 189 167.5 189.5c-3.5-.5-3.5-.5-5.437-2.125-1.358-3.035-1.483-5.083-1.063-8.375 2.28-4.023 5.788-3.451 10-3" fill="#E3E3E6"/><path d="m128 92 3 1-1.129 2.082-1.434 2.73-1.44 2.708c-1.334 2.546-1.334 2.546.003 5.48-1.441 2.629-1.441 2.629-3.562 5.563l-2.067 2.94c-2.703 2.847-4.627 3.507-8.371 4.497l-2.75 1.688L108 122l-2-1 1.434-.82c9.758-6.354 15.26-18.101 20.566-28.18" fill="#1B0C3E"/><path d="M128 113c0 3 0 3-1.355 4.684-.605.578-1.21 1.157-1.832 1.754l-1.922 1.855C121 123 121 123 118.062 125.25L116 127v3a403 403 0 0 1-5.25 3.063l-2.953 1.722C105 136 105 136 102.766 135.996c-2.558-1.443-2.927-3.268-3.766-5.996l3.184-1.066c10.51-3.648 17.943-7.956 25.816-15.934" fill="#8842EC"/><path d="M163 72v7l2 1-9 9c-2.562-2.25-2.562-2.25-5-5 .244-3.562 1.931-5.285 4.438-7.687l1.87-1.825C159.287 72.748 160.343 72 163 72" fill="#8736E8"/><path d="m166 57 1 2-2.309 1.031C157.531 63.392 148.721 67.557 145 75l-4-2v-4c6.195-5.892 16.222-12.513 25-12" fill="#1A0D40"/><path d="m184 59-2.64.008c-10.09.327-18.275 2.24-25.813 9.285A81.4 81.4 0 0 0 148 78l-4-2c4.498-9.277 13.828-14.23 23-18 5.853-1.463 11.597-2.045 17 1" fill="#0F0FE1"/><path d="m98 58 1 2-3.148.078c-13.079.47-23.07 3.104-32.575 12.652-3.13 3.485-5.38 6.95-7.277 11.27-1-3-1-3-.125-4.812L57 77l.063-2.875C58.583 69.06 62.52 67.44 67 65c10.235-5.392 19.472-7.441 31-7" fill="#6F60E1"/><path d="m136 99 3 1v3h-2l-.5 2.813c-2.708 9.355-10.778 17.595-18.5 23.187h-2v-2l-2-1 1.793-1.137c7.388-4.785 11.849-8.54 15.207-16.863a373 373 0 0 1 4-6z" fill="#AE1AE7"/><path d="M113 176h5l-1 5h6l-1-5h5v13h-5l1-6h-6l1 6h-5z" fill="#F4F4F5"/><path d="M73 137c3.73.746 6.574 1.532 10 3l-3 1 1 11-9-3z" fill="#CF31E3"/><path d="M111 81c-3 1-3 1-6 0-10.112-.59-19.508-.923-28.062 5.188L75 88c1.997-5.39 6.49-8.174 11.313-10.812C95.696 74.166 102.303 76.88 111 81" fill="#450A9A"/><path d="M113 63q3.94 1.931 7.875 3.875l2.262 1.105 2.168 1.075 2 .984C129 71 129 71 131 73c.565 2.655.738 5.291 1 8l-1.469-1.137c-5.25-4.008-10.606-7.9-16.531-10.863-.625-3.062-.625-3.062-1-6" fill="#6807C7"/><path d="M119 127h2v5q-2.871 1.475-5.75 2.938l-3.234 1.652c-4.319 2.02-7.514 2.535-12.266 2.472l-2.703-.027L95 139c2.14-2.14 3.052-2.443 5.875-3.25 5.805-1.834 13.76-4.385 18.125-8.75" fill="#E42DE8"/><path d="M108 56c5.985.343 10.751.823 16 4l-2 2v3a159 159 0 0 0 5 3v2c-3.146-1.18-6.21-2.51-9.25-3.937l-2.078-.965C114 64 114 64 113 61a396 396 0 0 0-5-3z" fill="#A928E5"/><path d="M57 176h13v4h-4v9h-6v-9h-3z" fill="#BFBEC5"/><path d="M55 116c3 1 3 1 4.813 3.688 2.37 5.817.333 12.37-.813 18.312-3.875-3.75-3.875-3.75-5-6 .09-2.724.234-5.41.438-8.125l.158-2.285q.196-2.796.404-5.59" fill="#6738E9"/><path d="m143 92 1.645 1.242 2.167 1.633 2.145 1.617A129 129 0 0 0 154 100c1.676 3.353 2 5.161 2 9-5.288-1.813-8.886-4.329-12-9-.54-2.66-.734-5.293-1-8" fill="#7407B4"/><path d="M99.5 175.813C103 176 103 176 105 177v3l-8-1 1 6h7l-2 4c-6.383.482-6.383.482-9-1.562-1.42-3.461-.863-5.853 0-9.438 2-2 2-2 5.5-2.187" fill="#BFBEC5"/><path d="M172 68v6h12v1l-2.668.113-3.52.2-3.48.175c-3.507.539-5.389 1.616-8.332 3.512h-3l-1-8c6.625-3 6.625-3 10-3" fill="#B732DF"/><path d="M182 104h3l1 6 3 1-1 3c-4.932-.493-8.797-1.298-13-4-.875-2.187-.875-2.187-1-4l3.438-.437c3.37-.175 3.37-.175 4.562-1.563" fill="#CC03D7"/><path d="m190 176 2 1v2l-2.937-.062c-2.938-.294-2.938-.294-4.063 1.062a100 100 0 0 0 0 5l5 1v-2l-2-1h5v6c-1.437.081-2.874.14-4.312.188l-2.426.105C184 189 184 189 182.23 187.707c-2.043-2.835-1.59-5.342-1.23-8.707 2.171-3.74 4.976-3.342 9-3" fill="#E9E8EB"/><path d="m160 68 1 5q-1.904 1.69-3.812 3.375l-2.145 1.898C153 80 153 80 150 82l-4-4c9.714-10 9.714-10 14-10" fill="#F401E1"/><path d="M51 91h1c.977 7.593 1.06 14.664.188 22.25l-.25 2.275c-.234 1.837-.577 3.659-.938 5.475l-2 1c-2.268-6.803-.88-14.491-.062-21.5l.263-2.453c.67-5.918.67-5.918 1.799-7.047" fill="#413CEE"/><path d="M180 75c6.616.027 11.173.93 16.3 5.246 2.655 2.74 4.177 5.244 5.7 8.754l-1 3-1.5-2.687c-2.644-3.962-6.183-6.374-10.5-8.313l-2.75.063L184 81c-2.312-3-2.312-3-4-6" fill="#890C8D"/><path d="M76 176h10v4h-2v-2h-4v3h3v2h-3v4h4v-2h2v4H76z" fill="#EAE9EC"/><path d="m174.625 59.75 3.414-.016C181 60 181 60 184 62l1 3 2 1c.625 2.063.625 2.063 1 4-3.375-.562-3.375-.562-7-2-1.437-3.625-1.437-3.625-2-7-10.489.245-18.332 3.938-26 11 1.396-3.307 2.925-5.016 5.813-7.125l2.019-1.508c4.626-2.917 8.333-3.642 13.793-3.617" fill="#8439EA"/><path d="m158 97 2.23 1.46 2.958 1.915 2.917 1.898c2.796 1.78 2.796 1.78 5.676 2.79 2.219.937 2.219.937 3.531 3.562L176 111c-10.842-2.473-10.842-2.473-15-5-1.459-2.907-2.302-5.83-3-9" fill="#AF05D3"/><path d="m120 136-1 12-7 2c-.35-3.4-.53-6.613 0-10 4.381-4 4.381-4 8-4" fill="#E332E6"/><path d="m198 109 1 2c-4.392 4.803-9.07 9.453-15.75 10.383-5.1.097-9.512-.334-14.25-2.383v-1l3.219-.113c12.915-.256 12.915-.256 23.781-6.574z" fill="#6E08AE"/><path d="M125 128c0 3 0 3-1.469 4.684-6.27 5.415-12.1 9.473-20.531 10.316.152-1.848.152-1.848 1-4 2.441-1.309 2.441-1.309 5.563-2.437 5.417-2.089 11.246-4.372 15.437-8.563" fill="#8408E6"/><path d="M154 101c1.965.902 3.922 1.822 5.875 2.75l3.305 1.547c2.862 1.728 3.755 2.603 4.82 5.703-3 2-3 2-5.375 1.875-3.344-1.115-5.192-2.307-7.625-4.875-.812-3.75-.812-3.75-1-7" fill="#8B06BE"/><path d="m190 99 4 12-4 2-3-1 1-1-2-1a129 129 0 0 1-2-7c3.75-4 3.75-4 6-4" fill="#E201DB"/><path d="M183 61c2.188-.312 2.188-.312 5 0 2.688 2.375 2.688 2.375 5 5l2 2c.125 2.625.125 2.625 0 5-3.948 0-5.185-1.337-8-4v-3l-3-1c-.687-2.062-.687-2.062-1-4" fill="#610AE7"/><path d="m97.688 52.688 2.587-.01c6.324.054 6.324.054 9.725 2.322l-21-1v2l2.117-.07 2.758-.055 2.742-.07C99 56 99 56 101 58l-17 1v-2l-2-1c5.321-3.29 9.635-3.428 15.688-3.312" fill="#470DE2"/><path d="m185 80 4 1c.108 1.915.186 3.833.25 5.75l.14 3.234C189 93 189 93 187.173 95.328c-3.431 2.642-6.168 2.789-10.36 2.734l-2.73-.027L172 98v-1l5.957-.684c2.237-.288 2.237-.288 5.043-1.316 2.21-3.191 2.216-5.945 2.125-9.75l-.055-2.984z" fill="#E605D7"/><path d="M96 60c5.986-.326 11.648.024 17 3 1.258 2.11 1.258 2.11 2 4-4.677 1.559-8.508-.28-13-2-2.231-1.188-4.005-2.425-6-4z" fill="#2E0DBE"/><path d="M144 176h6v2h-2v9h4v-3h3v5h-11z" fill="#E6E6E8"/><path d="M138 97c4.06 1.786 7.435 4.395 11 7l-5 11h-1l-.297-2.195c-.92-5.949-1.893-10.106-5.703-14.805z" fill="#501A7B"/><path d="M190 176h3c1.102 4.41 1.077 8.484 1 13h-1v-6l-3 1v2c-1.666.043-3.334.04-5 0-1-1-1-1-1.187-3.437C184 180 184 180 186 178c3.125.375 3.125.375 6 1v-2z" fill="#7D7B8A"/><path d="M106 66c5.75.875 5.75.875 8 2l.688 3.188c1.041 4.132 3.303 5.89 6.656 8.355 1.872 1.647 2.682 3.182 3.656 5.457a174 174 0 0 1-4-2l-2.5-1.25c-3.086-2.16-4.477-4.59-6.5-7.75l-2.687-2.687C107 69 107 69 106 66" fill="#330B9A"/><path d="M194 74c2.875.188 2.875.188 6 1 1.673 2.89 2 4.66 2 8h2c.054 1.937.093 3.875.125 5.813l.07 3.269C204 95 204 95 202 98l-.262-2.781c-.876-7.65-2.022-13.106-6.738-19.219z" fill="#4209E1"/><path d="M125 75c6.47 4.022 7.295 10.054 9 17-4.764-1.807-6.09-5.086-8.187-9.5-.86-2.647-.971-4.735-.813-7.5" fill="#5009A7"/><path d="M134 68c3.366 1.443 5.51 3.333 8 6l-2 6c-4.875-2.875-4.875-2.875-6-4-.141-2.67-.042-5.324 0-8" fill="#E031E5"/><path d="M131 91c3.571 1.88 5.547 3.17 7 7l-2 1c-2.625-.937-2.625-.937-5-2l-.875 2.375C129 102 129 102 127 104h-2c1.45-3.792 3.153-7.386 5-11z" fill="#210D42"/><path d="M189 71c5.642 2.491 9.107 6.767 11.375 12.438L201 86l-2.125-2.25c-4.646-4.444-8.381-7.132-14.875-7.75v-1h5z" fill="#CA32E1"/><path d="m128 92 3 1c-3.706 7.263-7.772 13.736-13 20l-1-2a103 103 0 0 1 3.75-6.812l1.094-1.87A686 686 0 0 1 125 97l1.766-2.95z" fill="#9F06B8"/><path d="M188 81h2c1.603 4.809 1.772 9.17-.187 13.813-2.137 2.578-3.73 3.856-6.813 5.187-4.424.388-7.148.116-11-2l2.738-.332 3.575-.48 3.55-.458c3.046-.531 3.046-.531 5.043-1.918 1.622-2.687 1.382-4.896 1.281-8l-.082-3.292z" fill="#F653E9"/><path d="M169 61h10l2 6h-10z" fill="#9C06E5"/><path d="m55 110 1.563 2.125c2.856 3.37 6.026 6.087 9.437 8.875l-2 1 1 5c-3.657-1.219-3.849-2.055-5.562-5.375-1.392-2.662-2.767-5.119-4.438-7.625z" fill="#2F0DE6"/><path d="M158 77c-.114 1.46-.242 2.917-.375 4.375-.07.812-.14 1.624-.21 2.46C157 86 157 86 155 88c-2.062-1.75-2.062-1.75-4-4 .08-2.61.772-3.71 2.375-5.75C155 77 155 77 158 77" fill="#6237ED"/><path d="M166 178c3.536.536 3.536.536 5 2 .125 2.5.125 2.5 0 5-1 1-1 1-3.562 1.063L165 186c-.625-2.875-.625-2.875-1-6z" fill="#2A273F"/><path d="M89 54h16l-1 3 2 2h-8l1-2-10-1z" fill="#702BEB"/><path d="M62 127c3.875 1.75 3.875 1.75 5 4-.247 2.05-.57 4.093-.937 6.125l-.59 3.32L65 143c-2.858-2.858-2.408-5.147-2.625-9.125l-.227-3.883z" fill="#8937EC"/><path d="M90 76c8.083-.674 13.736 1.558 21 5-3.265 1.088-4.37.899-7.625.125l-2.414-.555C99 80 99 80 98 79a86 86 0 0 0-4.562-.562l-2.504-.254L89 78z" fill="#8608B3"/><path d="M94 64c6.055-.195 6.055-.195 8 0 2 2 2 2 2 6l-8-1z" fill="#1C0C99"/><path d="m73 137 5 1-2 1v11l-4-1z" fill="#BC34E5"/><path d="M128 120c.375 2.063.375 2.063 0 5-1.792 2.536-3.842 4.772-6 7-2-3-2-3-2-6 1.496-1.605 1.496-1.605 3.438-3.187l1.933-1.606C127 120 127 120 128 120" fill="#D132E8"/><path d="m184 59-2.781.113c-7.007.376-12.826.946-19.219 3.887l-2-2c7.664-3.456 16.1-6.451 24-2" fill="#130EC9"/><path d="m66 131 3 1v14l-4-2z" fill="#9935E7"/><path d="M63 67c.707 1.648.707 1.648 1 4-1.363 2.727-1.363 2.727-3.312 5.625l-1.926 2.914C57 82 57 82 55 84c.313-1.67.653-3.336 1-5l.336-1.973c.785-3.962 1.266-5.648 4.289-8.527z" fill="#634EE7"/><path d="m170 177 4 2c.23 3.367.34 5.414-1.375 8.375L171 189h-2v-2l-3-1 4-1z" fill="#DBDBDF"/><path d="M80 141h6l-2 1c-.468 2.356-.468 2.356-.625 5.063l-.227 2.785L83 152l-3-1z" fill="#E533E8"/><path d="m199 104 2 4c-2.57 2.57-5.051 4.86-8 7-2.875-.187-2.875-.187-5-1l1.625-1.187c5.407-3.785 5.407-3.785 9.375-8.813" fill="#2D0D43"/><path d="M83 60a609 609 0 0 1 6.313-.125l3.55-.07C96 60 96 60 99 62l1 2h-9l-1-2a109 109 0 0 0-7-1z" fill="#1A10BA"/><path d="M125 128c0 3 0 3-1.61 4.79l-2.14 1.835-2.11 1.852c-2.116 1.506-3.604 2.1-6.14 2.523l-1-3 2.336-1.242 3.039-1.633 3.023-1.617c2.655-1.39 2.655-1.39 4.602-3.508" fill="#A40FE6"/><path d="M125 120c-.173 2.335-.702 3.692-2.332 5.379C118.428 129 118.428 129 116 129v-2l-2-1a783 783 0 0 1 4.375-3l2.46-1.687C123 120 123 120 125 120" fill="#A20FE6"/><path d="M98 69c6.395.698 6.395.698 9 2l1 4-10-2-1-3z" fill="#1E0C88"/><path d="M160 60a805 805 0 0 1-4.375 2.5l-2.46 1.406C151 65 151 65 149 65v2c-5.412 4-5.412 4-8 4v-2c13.293-10.902 13.293-10.902 19-9" fill="#3C0A9F"/><path d="M152 72a85 85 0 0 1 2 7l-4 3-4-4z" fill="#E305E2"/><path d="M122 61c3.257.418 4.634.634 7 3l-2 4c-2.437-.75-2.437-.75-5-2-.875-2.062-.875-2.062-1-4z" fill="#BF31E7"/><path d="M99.5 175.813C103 176 103 176 105 177v3l-9-2v5h-2c-.125-2.375-.125-2.375 0-5 2-2 2-2 5.5-2.187" fill="#E9E9EB"/><path d="m88 54-5 2 1 3-6 1-1-2 1-3c3.653-1.623 6.194-2.464 10-1" fill="#1C0ED9"/><path d="M62 177h2v10h2v2h-6v-2h2z" fill="#F6F6F7"/><path d="M99 130h7c.625 1.875.625 1.875 1 4l-2 2c-2-.062-2-.062-4-1-1.25-2.562-1.25-2.562-2-5" fill="#7C08E7"/><path d="M159 75c1.853 3.126 2.619 5.376 2 9-2.5 2.813-2.5 2.813-5 5l2-12-2-1z" fill="#6F36E2"/><path d="m146 195 5 1-1 5-5-1z" fill="#4A3369"/><path d="M186.938 175.875C190 176 190 176 192 177v2h-6l-2 5-3-3c2.407-4.975 2.407-4.975 5.938-5.125" fill="#EAEAEC"/><path d="M113 63c3.438 1.25 3.438 1.25 7 3 .938 2.188.938 2.188 1 4-3 1-3 1-5.125.438C114 69 114 69 113.25 65.875z" fill="#4E0FC4"/><path d="M76 63q-2.401 1.724-4.812 3.438L68.48 68.37C66 70 66 70 63 71c.637-2.865 1.368-4.56 3.809-6.258 5.6-2.939 5.6-2.939 9.191-1.742" fill="#7E63E7"/><path d="M129 195c2.063.438 2.063.438 4 1l-1 5-5-1c.875-3.875.875-3.875 2-5" fill="#4B336A"/><path d="M76 175h11v6h-7v-3h4v2h2v-4H76z" fill="#636173"/><path d="M76 176h10v4h-2v-2h-4v3h-2v-3h-2z" fill="#FAFAFA"/><path d="M163 65c1.5 1.375 1.5 1.375 3 3v2l-5 2-.375-1.937L160 68l-2-1z" fill="#DA06E4"/><path d="M106 61c6.646 1.477 6.646 1.477 8.438 4.125L115 67c-3 1-3 1-5.625-.187C107 65 107 65 106.188 62.813z" fill="#400CC0"/><path d="M186 178h3l1 3h-3v4l2 1-5-1c-.125-2.375-.125-2.375 0-5z" fill="#23203A"/><path d="M198 69c3.33 2.696 4.545 6.05 6 10v4h-2q-1.005-2.936-2-5.875l-1.125-3.305C198 71 198 71 198 69" fill="#280CCD"/><path d="M120 67c2.438.625 2.438.625 5 2 .813 3.125.813 3.125 1 6-6-3-6-3-6.687-5L119 68z" fill="#5908C6"/><path d="M167.625 175.875 171 176c-2 3-2 3-3.937 3.438-2.78.757-3.54 2.2-5.063 4.562-.125-2.875-.125-2.875 0-6 2-2 2-2 5.625-2.125" fill="#F0F0F2"/><path d="M188 183h5v6l-7-1 4-2v-2z" fill="#F8F8F9"/><path d="m169 68 2 1-.562 2.375c-.698 2.596-.698 2.596.562 4.625l-4 1 .063-2.875c.163-3.032.163-3.032-1.063-5.125z" fill="#C130E5"/><path d="m116 112 2 2a414 414 0 0 1-3.75 3.438l-2.11 1.933c-2.128 1.62-3.53 2.212-6.14 2.629z" fill="#380C7B"/><path d="m164 113 10 2c-3.611 1.806-4.545 2.249-8.25 2.125L162 117v-2h2z" fill="#220C3F"/><path d="M184 92h1v5c-3.015 1.005-5.042 1.103-8.187 1.063l-2.731-.028L172 98v-1l5.957-.684c2.237-.288 2.237-.288 5.043-1.316z" fill="#C408CA"/><path d="m108 56 7 1v4c-2.937-.812-2.937-.812-6-2z" fill="#9E35EA"/><path d="M113 176h5l-1 5h-1l-1 6h-1z" fill="#E6E5E8"/><path d="M191 114v2c-3.215 1.607-6.436 1.057-10 1v-2c3.406-.778 6.508-1.1 10-1" fill="#1F0D36"/><path d="m80 183 7 1v5l-1-4h-2v2h-4z" fill="#727080"/><path d="m133 92 5 4-1 3-5-2z" fill="#140C7C"/><path d="m169 61 5 1 1 5c-1.875-.187-1.875-.187-4-1-1.25-2.562-1.25-2.562-2-5" fill="#AE08E5"/><path d="M156 78c1.642 3.283.519 6.425 0 10l-2-1c-.812-2.875-.812-2.875-1-6 1.438-1.875 1.438-1.875 3-3" fill="#553BEE"/><path d="m112 124-1 3c-3.803 1.69-6.053 2.199-10 1a875 875 0 0 1 4.375-2l2.46-1.125C110 124 110 124 112 124" fill="#1618D8"/><path d="M189 63h2c4 4.353 4 4.353 4 8h-2v-2h-2z" fill="#5109E8"/><path d="m183 61 4 1 2 8-2-1v-3l-3-1c-.687-2.062-.687-2.062-1-4" fill="#7007E7"/><path d="M116 127v3c-1.875 1.063-1.875 1.063-4 2l-2-1v-3c3-1 3-1 6-1" fill="#9108E6"/><path d="m136 99 3 1v3h-2l-1 3h-2z" fill="#AE0BE1"/><path d="M55 79v9h-2l-1-8c2-1 2-1 3-1" fill="#4540E8"/><path d="m105 185-2 4h-5v-2c2.647-1.46 3.894-2 7-2" fill="#EFEFF0"/><path d="m194 74 5 1 1 7c-2.12-2.615-4.13-5.196-6-8" fill="#530CE8"/><path d="m109 196 1 2h2v-2h2v5h-2v-2h-2l-1 2z" fill="#644486"/><path d="m81 80 3 2-9 6c1.443-3.366 3.333-5.51 6-8" fill="#1E0C96"/><path d="M196 77c3.092 2.53 3.91 5.225 5 9-4.875-4.75-4.875-4.75-6-7z" fill="#9C31E4"/><path d="m182 61 2 1 1 3 2 1c.625 2.063.625 2.063 1 4-1.875-.562-1.875-.562-4-2-1.25-3.625-1.25-3.625-2-7" fill="#8408E6"/></svg>